<svg width="16" height="14" viewBox="0 0 16 14" fill="none" xmlns="http://www.w3.org/2000/svg">
<path fill-rule="evenodd" clip-rule="evenodd" d="M7.63653 0.918254C7.26829 0.542874 6.67127 0.542874 6.30304 0.918254L1.00347 6.32067C0.826638 6.50093 0.727295 6.74542 0.727295 7.00036C0.727295 7.25529 0.826638 7.49978 1.00347 7.68004L6.30304 13.0825C6.67127 13.4578 7.26829 13.4578 7.63653 13.0825C8.00476 12.7071 8.00476 12.0985 7.63653 11.7231L3.94663 7.96158H14.3298C14.8506 7.96158 15.2727 7.53122 15.2727 7.00036C15.2727 6.46949 14.8506 6.03913 14.3298 6.03913H3.94663L7.63653 2.27762C8.00476 1.90224 8.00476 1.29363 7.63653 0.918254Z" fill="#131517"/>
</svg>
