<svg width="40" height="40" viewBox="0 0 40 40" fill="none" xmlns="http://www.w3.org/2000/svg">
<rect width="40" height="40" rx="20" fill="#F8F8F8"/>
<path fill-rule="evenodd" clip-rule="evenodd" d="M19.6365 13.9183C19.2683 13.5429 18.6713 13.5429 18.303 13.9183L13.0035 19.3207C12.8266 19.5009 12.7273 19.7454 12.7273 20.0004C12.7273 20.2553 12.8266 20.4998 13.0035 20.68L18.303 26.0825C18.6713 26.4578 19.2683 26.4578 19.6365 26.0825C20.0048 25.7071 20.0048 25.0985 19.6365 24.7231L15.9466 20.9616H26.3298C26.8506 20.9616 27.2727 20.5312 27.2727 20.0004C27.2727 19.4695 26.8506 19.0391 26.3298 19.0391H15.9466L19.6365 15.2776C20.0048 14.9022 20.0048 14.2936 19.6365 13.9183Z" fill="#131517"/>
</svg>
