<svg width="21" height="24" viewBox="0 0 21 24" fill="none" xmlns="http://www.w3.org/2000/svg">
<path d="M10.3846 2.15144C15.942 2.15144 20.4447 6.65415 20.4447 12.2115C20.4447 17.7689 15.942 22.2716 10.3846 22.2716C4.82722 22.2716 0.324519 17.7689 0.324519 12.2115C0.324519 6.65415 4.82722 2.15144 10.3846 2.15144ZM10.3846 20.3245C14.8468 20.3245 18.4976 16.7142 18.4976 12.2115C18.4976 7.7494 14.8468 4.09856 10.3846 4.09856C5.88191 4.09856 2.27163 7.7494 2.27163 12.2115C2.27163 16.7142 5.88191 20.3245 10.3846 20.3245ZM14.4817 9.69652L11.9666 12.2115L14.4817 14.7671C14.6845 14.9294 14.6845 15.2539 14.4817 15.4567L13.5892 16.3492C13.3864 16.552 13.0619 16.552 12.8996 16.3492L10.3846 13.8341L7.82903 16.3492C7.66677 16.552 7.34225 16.552 7.13942 16.3492L6.24699 15.4567C6.04417 15.2539 6.04417 14.9294 6.24699 14.7671L8.76202 12.2115L6.24699 9.69652C6.04417 9.53426 6.04417 9.20974 6.24699 9.00691L7.13942 8.11448C7.34225 7.91166 7.66677 7.91166 7.82903 8.11448L10.3846 10.6295L12.8996 8.11448C13.0619 7.91166 13.3864 7.91166 13.5892 8.11448L14.4817 9.00691C14.6845 9.20974 14.6845 9.53426 14.4817 9.69652Z" fill="#262626"/>
</svg>
