<svg width="12" height="12" viewBox="0 0 12 12" fill="none" xmlns="http://www.w3.org/2000/svg">
<path d="M2.27295 0.652013C1.82548 0.204537 1.09998 0.204537 0.652502 0.652013C0.205026 1.09949 0.205026 1.82499 0.652502 2.27247L4.37954 5.99951L0.652502 9.72655C0.205025 10.174 0.205026 10.8995 0.652502 11.347C1.09998 11.7945 1.82548 11.7945 2.27295 11.347L6 7.61996L9.72704 11.347C10.1745 11.7945 10.9 11.7945 11.3475 11.347C11.795 10.8995 11.795 10.174 11.3475 9.72655L7.62045 5.99951L11.3475 2.27247C11.795 1.82499 11.795 1.09949 11.3475 0.652013C10.9 0.204537 10.1745 0.204538 9.72704 0.652013L6 4.37906L2.27295 0.652013Z" fill="#262626"/>
</svg>
