<svg width="19" height="11" viewBox="0 0 19 11" fill="none" xmlns="http://www.w3.org/2000/svg">
<path d="M18.0205 6.85643C17.8515 6.94263 17.6877 7.03138 17.5071 7.08862C17.3379 7.14239 17.1732 7.17815 16.9994 7.20961C16.6657 7.27018 16.3328 7.33551 16.001 7.40953C15.3647 7.5516 14.7298 7.70336 14.1184 7.9421C14.0655 7.96269 13.8024 8.0759 14.0413 7.9712C13.9675 8.00357 13.8944 8.03779 13.8218 8.07285C13.675 8.14308 13.5313 8.22011 13.3884 8.29853C13.0951 8.45944 12.812 8.64649 12.5416 8.84604C12.514 8.8668 12.486 8.88774 12.4586 8.90906C12.3113 9.02158 12.5995 8.79366 12.4539 8.91262C12.3457 9.0009 12.2366 9.08632 12.124 9.16819C12.0885 9.19407 11.8597 9.37314 12.0153 9.24817C11.941 9.30776 11.8688 9.36954 11.7967 9.43233C11.473 9.71375 11.1791 10.0076 10.8094 10.226C10.4947 10.4122 10.1966 10.1174 10.2516 9.78975C10.3246 9.3584 10.5243 8.99615 10.7717 8.64118C11.0173 8.28911 11.2747 7.9521 11.5976 7.67192C12.2084 7.14191 12.8717 6.76792 13.616 6.4819C14.2862 6.22433 14.9882 6.07226 15.6929 5.97964C16.0436 5.9336 16.3957 5.9009 16.7474 5.87217C17.154 5.83894 17.5191 5.8576 17.9146 5.95381C18.3034 6.04804 18.4056 6.65976 18.0205 6.85643Z" fill="#292929"/>
<path d="M13.2607 6.93243C13.387 6.79327 13.5333 6.62821 13.6942 6.5315C13.8673 6.42744 14.0892 6.36669 14.2779 6.30153C14.6219 6.18276 14.9759 6.09276 15.3278 6.00483C15.6737 5.91822 16.0394 5.89342 16.3899 5.83248C16.5621 5.80275 16.7336 5.76854 16.9044 5.73029C16.9882 5.71136 17.0716 5.6904 17.1546 5.66861C17.2004 5.65644 17.3143 5.59172 17.1911 5.66766C17.2338 5.64125 17.2755 5.61579 17.3196 5.59264C17.5861 5.45228 17.8973 5.46851 18.1132 5.68694C18.3472 5.92361 18.3901 6.40775 18.1089 6.64713C18.0745 6.67643 18.0401 6.70574 18.0059 6.73487C17.8185 6.89436 17.647 6.95737 17.4085 6.9562C17.2235 6.95546 17.038 6.94832 16.8531 6.93923C16.3835 6.91605 15.9221 6.73103 15.4987 6.54115C14.8332 6.24221 14.231 5.78729 13.7143 5.26976C13.4356 4.99065 13.1966 4.68316 12.9628 4.36359C12.7471 4.0687 12.5711 3.76004 12.3873 3.44525C12.1922 3.11068 12.05 2.74499 11.8994 2.38666C11.7112 1.93859 11.4839 1.48597 11.5695 0.98075C11.6051 0.771432 11.8789 0.606851 12.0705 0.679603C12.4947 0.840195 12.7329 1.20358 12.9959 1.55913C13.015 1.58504 13.0342 1.61095 13.0534 1.63686C13.1541 1.77249 12.9573 1.50893 13.0561 1.64046C13.1113 1.71398 13.1667 1.78705 13.2222 1.85996C13.3655 2.04753 13.5173 2.2273 13.6552 2.41922C13.699 2.48014 13.7396 2.54407 13.7821 2.60611C13.8074 2.64297 13.8329 2.67966 13.8587 2.71619C13.9551 2.85403 13.7234 2.56018 13.8377 2.67828C13.9295 2.7732 14.0017 2.88668 14.0789 2.99452C14.1041 3.02993 14.1298 3.065 14.1556 3.10007C14.2552 3.23636 14.0222 2.92301 14.123 3.05673C14.3158 3.31225 14.5223 3.55725 14.7338 3.79662C14.9305 4.01911 15.1422 4.22689 15.3668 4.4191C15.4175 4.46241 15.4696 4.50443 15.5217 4.54573C15.2784 4.35243 15.5139 4.53769 15.5732 4.57991C15.7053 4.6739 15.8426 4.76018 15.9826 4.84115C16.1139 4.9172 16.2491 4.98566 16.3863 5.04959C16.4627 5.08529 16.5403 5.11914 16.6179 5.153C16.7672 5.21821 16.4278 5.07706 16.5813 5.13832C16.6221 5.15458 16.663 5.16967 16.7041 5.18504C16.9091 5.26133 17.1126 5.32809 17.3107 5.42316C17.351 5.44239 17.3916 5.46101 17.4324 5.47918C17.1151 5.33594 17.7447 5.59282 17.4288 5.47608C17.5195 5.50955 17.6113 5.53971 17.7031 5.56988C17.5864 5.5708 17.4698 5.57199 17.3531 5.57291C17.397 5.55547 17.4411 5.53831 17.4848 5.52104C17.5908 5.95752 17.6964 6.39417 17.8025 6.83094C17.7299 6.84203 17.6572 6.85239 17.5842 6.86219C17.5489 6.86511 17.4133 6.89753 17.5487 6.85956C17.4663 6.88293 17.3831 6.90299 17.3002 6.92288C17.1305 6.96309 16.9594 6.99551 16.788 7.02592C16.4352 7.08864 16.0801 7.13544 15.7266 7.18886C15.5136 7.22103 15.3009 7.23579 15.087 7.25546C15.0512 7.25899 15.0157 7.26236 14.9797 7.26606C14.8042 7.28389 15.084 7.2475 14.907 7.27378C14.8168 7.2872 14.7267 7.30207 14.6367 7.31723C14.4574 7.34748 14.2797 7.38654 14.103 7.4321C13.8981 7.48486 13.6797 7.45853 13.4705 7.46412C13.1979 7.47148 13.0828 7.12849 13.2607 6.93243Z" fill="#292929"/>
<path d="M15.6744 6.78741C15.242 6.94067 14.7942 6.90958 14.3501 6.86125C13.9322 6.81596 13.513 6.78232 13.095 6.73702C12.274 6.64797 11.45 6.58209 10.6236 6.55058C9.81417 6.51972 9.00186 6.52766 8.19128 6.57274C7.78862 6.59502 7.38644 6.63085 6.98568 6.67856C6.88925 6.6901 6.79301 6.70265 6.69708 6.71576C6.90071 6.68808 6.73109 6.71104 6.69143 6.71691C6.64328 6.72414 6.59541 6.73119 6.54742 6.7387C6.33903 6.77112 6.13099 6.80819 5.92353 6.84828C5.52131 6.92606 5.12177 7.02133 4.72427 7.12362C4.30282 7.23206 3.89127 7.37573 3.47255 7.49376C3.0441 7.61427 2.62089 7.75559 2.2031 7.912C1.98993 7.99183 1.77526 8.06696 1.56213 8.14752C1.34927 8.22792 1.11637 8.26084 0.897534 8.32312C0.555698 8.42039 0.268141 7.95455 0.549211 7.69501C0.723098 7.53434 0.892777 7.35073 1.08425 7.21243C1.27187 7.07719 1.47084 6.94974 1.67163 6.83691C2.04849 6.62536 2.43398 6.43072 2.82543 6.25083C3.62648 5.88241 4.47919 5.63716 5.33491 5.45938C6.97558 5.11825 8.64565 5.0189 10.3057 5.09628C11.2379 5.13981 12.1655 5.23631 13.0897 5.35351C13.5395 5.41077 13.986 5.48829 14.4321 5.56642C14.905 5.64944 15.3917 5.74327 15.7795 6.04177C16.0539 6.25308 16.0291 6.66258 15.6745 6.78814L15.6744 6.78741Z" fill="#292929"/>
<path d="M16.1228 6.85413C15.7154 7.2027 15.1492 7.17425 14.6522 7.16377C14.2054 7.15453 13.7593 7.14451 13.313 7.1234C12.4253 7.08153 11.5376 7.04492 10.649 7.02534C8.86255 6.98614 7.08662 7.00798 5.30256 7.20393C5.01385 7.23558 4.72511 7.26987 4.4366 7.30589C4.36402 7.31507 4.29175 7.32482 4.21947 7.33457C4.14211 7.34513 4.14692 7.34448 4.23421 7.33245C4.19751 7.33766 4.16098 7.34315 4.12445 7.34863C3.93834 7.37589 3.75336 7.39984 3.56625 7.4146C2.98188 7.46074 2.35712 7.61277 1.77952 7.49235C1.53443 7.44125 1.43473 7.07739 1.62926 6.90057C2.01242 6.55233 2.5192 6.39297 2.99417 6.23027C3.43769 6.07824 3.87582 5.96651 4.33412 5.88048C5.2671 5.70529 6.21194 5.61282 7.15566 5.56371C8.93571 5.47125 10.7119 5.54133 12.4837 5.66465C13.072 5.70563 13.6596 5.74812 14.2459 5.80753C14.5661 5.84004 14.8896 5.86238 15.2076 5.91085C15.53 5.96001 15.8988 6.03336 16.1255 6.28607C16.2569 6.43242 16.294 6.70739 16.1228 6.85413Z" fill="#292929"/>
</svg>
