<svg width="21" height="19" viewBox="0 0 21 19" fill="none" xmlns="http://www.w3.org/2000/svg">
<path d="M15.1875 0.671875C14.1022 0.671875 13.1072 1.01578 12.2302 1.69406C11.3894 2.34434 10.8296 3.17258 10.5 3.77484C10.1704 3.17254 9.61063 2.34434 8.7698 1.69406C7.89277 1.01578 6.89777 0.671875 5.8125 0.671875C2.78391 0.671875 0.5 3.1491 0.5 6.43414C0.5 9.98312 3.34934 12.4113 7.66285 16.0872C8.39535 16.7114 9.22563 17.419 10.0886 18.1737C10.2023 18.2733 10.3484 18.3281 10.5 18.3281C10.6516 18.3281 10.7977 18.2733 10.9114 18.1737C11.7745 17.4189 12.6047 16.7114 13.3376 16.0868C17.6507 12.4113 20.5 9.98312 20.5 6.43414C20.5 3.1491 18.2161 0.671875 15.1875 0.671875Z" fill="#EF5A57"/>
</svg>
