<?xml version="1.0" encoding="UTF-8"?>
<!-- Enlarged SVG with thicker stroke -->
<svg version="1.1" id="Layer_1" xmlns="http://www.w3.org/2000/svg" xmlns:xlink="http://www.w3.org/1999/xlink"
	x="0px" y="0px" width="800px" height="800px"
	viewBox="0 0 48 48" style="enable-background:new 0 0 48 48;" xml:space="preserve">

  <path style="fill:none;stroke:#000000;stroke-width:4;stroke-linecap:round;stroke-linejoin:round;stroke-miterlimit:10;" d="
    M11.5,14.83V8.4c0-1.1,0.9-2,2-2h21c1.1,0,2,0.9,2,2v3.366"/>

	<path style="fill:none;stroke:#000000;stroke-width:4;stroke-linecap:round;stroke-linejoin:round;stroke-miterlimit:10;" d="
    M36.5,35.596V39.5c0,1.6-1.8,2.6-3.2,1.6l-8.7-6.2c-0.3-0.3-0.8-0.3-1.2,0l-8.7,6.3c-1.3,1-3.2,0-3.2-1.6l0-19.076"/>

	<g>
    <path style="fill:none;stroke:#000000;stroke-width:4;stroke-linecap:round;stroke-linejoin:round;stroke-miterlimit:10;" d="
      M35.726,30.259l-3.104,1.574c-1.085,0.55-2.353-0.331-2.167-1.506l0.551-3.48c0.072-0.457-0.083-0.92-0.421-1.247l-2.398-2.329
      c-0.865-0.84-0.381-2.279,0.829-2.459l1.921-0.287"/>

		<path style="fill:none;stroke:#000000;stroke-width:4;stroke-linecap:round;stroke-linejoin:round;stroke-miterlimit:10;" d="
      M35.081,16.802c0.551-1.07,2.121-1.07,2.671,0l1.385,2.69c0.217,0.421,0.63,0.713,1.109,0.785l3.57,0.534
      c1.209,0.181,1.694,1.619,0.829,2.459L42.247,25.6c-0.336,0.327-0.493,0.79-0.421,1.247l0.551,3.48"/>
  </g>
</svg>
