<svg width="26" height="26" viewBox="0 0 26 26" fill="none" xmlns="http://www.w3.org/2000/svg">
<path fill-rule="evenodd" clip-rule="evenodd" d="M3.78013 6.44066C4.79285 5.42825 6.1662 4.85951 7.59819 4.85951C9.03017 4.85951 10.4035 5.42825 11.4162 6.44066L12.9985 8.02162L14.5809 6.44066C15.079 5.92487 15.6749 5.51346 16.3338 5.23043C16.9927 4.9474 17.7013 4.79843 18.4183 4.7922C19.1354 4.78597 19.8465 4.9226 20.5102 5.19414C21.1739 5.46567 21.7769 5.86667 22.2839 6.37372C22.791 6.88078 23.192 7.48374 23.4635 8.14742C23.735 8.81111 23.8717 9.52223 23.8654 10.2393C23.8592 10.9563 23.7102 11.665 23.4272 12.3238C23.1442 12.9827 22.7328 13.5786 22.217 14.0768L12.9985 23.2965L3.78013 14.0768C2.76772 13.0641 2.19897 11.6907 2.19897 10.2587C2.19897 8.82674 2.76772 7.45338 3.78013 6.44066V6.44066Z" stroke="#EF5A57" stroke-width="1.625" stroke-linejoin="round"/>
</svg>
