<svg width="12" height="12" viewBox="0 0 12 12" fill="none" xmlns="http://www.w3.org/2000/svg">
<path d="M4.82422 1.32617L5.38281 0.767578C5.63672 0.539063 6.01758 0.539063 6.24609 0.767578L11.1973 5.69336C11.4258 5.94727 11.4258 6.32813 11.1973 6.55664L6.24609 11.5078C6.01758 11.7363 5.63672 11.7363 5.38281 11.5078L4.82422 10.9492C4.5957 10.6953 4.5957 10.3145 4.82422 10.0605L7.89648 7.14063L0.609375 7.14062C0.253906 7.14062 0 6.88672 0 6.53125L0 5.71875C0 5.38867 0.253906 5.10938 0.609375 5.10938L7.89648 5.10938L4.82422 2.21484C4.5957 1.96094 4.57031 1.58008 4.82422 1.32617Z" fill="#292929"/>
</svg>
