<svg width="44" height="44" viewBox="0 0 44 44" fill="none" xmlns="http://www.w3.org/2000/svg">
<rect width="44" height="44" rx="22" fill="white"/>
<path fill-rule="evenodd" clip-rule="evenodd" d="M11.9714 16.8571C11.9714 16.3838 12.4192 16 12.9714 16H30.9714C31.5237 16 31.9714 16.3838 31.9714 16.8571C31.9714 17.3305 31.5237 17.7143 30.9714 17.7143H12.9714C12.4192 17.7143 11.9714 17.3305 11.9714 16.8571Z" fill="#292929"/>
<path fill-rule="evenodd" clip-rule="evenodd" d="M11.9714 21.8571C11.9714 21.3838 12.4192 21 12.9714 21H30.9714C31.5237 21 31.9714 21.3838 31.9714 21.8571C31.9714 22.3305 31.5237 22.7143 30.9714 22.7143H12.9714C12.4192 22.7143 11.9714 22.3305 11.9714 21.8571Z" fill="#292929"/>
<path fill-rule="evenodd" clip-rule="evenodd" d="M11.9714 26.8571C11.9714 26.3838 12.4192 26 12.9714 26H30.9714C31.5237 26 31.9714 26.3838 31.9714 26.8571C31.9714 27.3305 31.5237 27.7143 30.9714 27.7143H12.9714C12.4192 27.7143 11.9714 27.3305 11.9714 26.8571Z" fill="#292929"/>
</svg>
