<svg width="28" height="25" viewBox="0 0 28 25" fill="none" xmlns="http://www.w3.org/2000/svg">
<path d="M27.0393 11.4731L14.6643 0.47309C14.4125 0.248879 14.0871 0.125 13.7499 0.125C13.4128 0.125 13.0874 0.248879 12.8355 0.47309L0.460542 11.4731C0.325658 11.5932 0.215746 11.7386 0.137081 11.9012C0.0584158 12.0637 0.0125388 12.2402 0.00206899 12.4205C-0.00840082 12.6008 0.0167416 12.7814 0.0760609 12.9519C0.13538 13.1225 0.227714 13.2797 0.347792 13.4146C0.467869 13.5495 0.613338 13.6594 0.775893 13.738C0.938448 13.8167 1.11491 13.8626 1.29519 13.8731C1.47548 13.8835 1.65606 13.8584 1.82663 13.7991C1.99719 13.7397 2.15441 13.6474 2.28929 13.5273L2.74992 13.1148V23.5002C2.74992 23.8649 2.89478 24.2146 3.15265 24.4725C3.41051 24.7303 3.76024 24.8752 4.12492 24.8752H9.62492C9.98959 24.8752 10.3393 24.7303 10.5972 24.4725C10.8551 24.2146 10.9999 23.8649 10.9999 23.5002V19.3752C10.9999 19.0105 11.1448 18.6608 11.4026 18.4029C11.6605 18.1451 12.0102 18.0002 12.3749 18.0002H15.1249C15.4896 18.0002 15.8393 18.1451 16.0972 18.4029C16.3551 18.6608 16.4999 19.0105 16.4999 19.3752V23.5002C16.4999 23.8649 16.6448 24.2146 16.9026 24.4725C17.1605 24.7303 17.5102 24.8752 17.8749 24.8752H23.3749C23.7396 24.8752 24.0893 24.7303 24.3472 24.4725C24.6051 24.2146 24.7499 23.8649 24.7499 23.5002V13.1176L25.2105 13.5301C25.3454 13.6502 25.5026 13.7425 25.6732 13.8018C25.8438 13.8611 26.0244 13.8863 26.2046 13.8758C26.3849 13.8653 26.5614 13.8195 26.7239 13.7408C26.8865 13.6621 27.032 13.5522 27.152 13.4173C27.2721 13.2825 27.3645 13.1252 27.4238 12.9547C27.4831 12.7841 27.5082 12.6035 27.4978 12.4232C27.4873 12.243 27.4414 12.0665 27.3628 11.9039C27.2841 11.7414 27.1742 11.5959 27.0393 11.4758V11.4731Z" fill="#828282"/>
</svg>
