<svg width="18" height="19" viewBox="0 0 18 19" fill="none" xmlns="http://www.w3.org/2000/svg">
<path fill-rule="evenodd" clip-rule="evenodd" d="M11.7697 7.12658C11.7963 6.81706 12.0689 6.58776 12.3784 6.61441C13.8123 6.73789 14.9354 7.17885 15.6807 8.09729C16.4133 9.0002 16.6951 10.2621 16.6951 11.8323V11.9298C16.6951 13.6617 16.3518 15.0205 15.44 15.9323C14.5283 16.844 13.1695 17.1873 11.4376 17.1873H6.55511C4.82323 17.1873 3.4644 16.844 2.55267 15.9323C1.64095 15.0205 1.29761 13.6617 1.29761 11.9298V11.8323C1.29761 10.2735 1.57564 9.01921 2.29649 8.11813C3.03036 7.20081 4.13706 6.75402 5.5504 6.62227C5.85972 6.59343 6.13384 6.82081 6.16268 7.13013C6.19151 7.43945 5.96414 7.71357 5.65482 7.74241C4.41316 7.85816 3.64861 8.22887 3.17497 8.82092C2.68833 9.42922 2.42261 10.3762 2.42261 11.8323V11.9298C2.42261 13.5505 2.75052 14.5391 3.34817 15.1368C3.94582 15.7344 4.93449 16.0623 6.55511 16.0623H11.4376C13.0582 16.0623 14.0469 15.7344 14.6445 15.1368C15.2422 14.5391 15.5701 13.5505 15.5701 11.9298V11.8323C15.5701 10.3651 15.3007 9.41447 14.8071 8.80614C14.326 8.21333 13.5479 7.84428 12.2818 7.73526C11.9723 7.70861 11.743 7.43609 11.7697 7.12658Z" fill="#262626"/>
<path fill-rule="evenodd" clip-rule="evenodd" d="M9 2.65234C9.31066 2.65234 9.5625 2.90418 9.5625 3.21484V11.7498C9.5625 12.0605 9.31066 12.3123 9 12.3123C8.68934 12.3123 8.4375 12.0605 8.4375 11.7498V3.21484C8.4375 2.90418 8.68934 2.65234 9 2.65234Z" fill="#262626"/>
<path fill-rule="evenodd" clip-rule="evenodd" d="M8.6023 1.97725C8.82197 1.75758 9.17813 1.75758 9.3978 1.97725L11.9103 4.48975C12.13 4.70942 12.13 5.06558 11.9103 5.28525C11.6906 5.50492 11.3345 5.50492 11.1148 5.28525L9.00005 3.1705L6.8853 5.28525C6.66563 5.50492 6.30947 5.50492 6.0898 5.28525C5.87013 5.06558 5.87013 4.70942 6.0898 4.48975L8.6023 1.97725Z" fill="#262626"/>
</svg>
