<svg width="40" height="40" viewBox="0 0 40 40" fill="none" xmlns="http://www.w3.org/2000/svg">
<rect width="40" height="40" rx="20" fill="#EF5A57"/>
<g clip-path="url(#clip0_1439_11517)">
<path d="M21.3589 23.2853C21.2842 23.2035 21.1897 23.1423 21.092 23.0914C20.8794 22.9805 20.6469 22.9132 20.416 22.8525V24.6416C20.7908 24.5993 21.221 24.4632 21.4178 24.1134C21.5117 23.9463 21.5304 23.741 21.4921 23.5549C21.4714 23.4541 21.4285 23.3616 21.3589 23.2853Z" fill="white"/>
<path d="M21.418 24.1183C21.4186 24.1172 21.419 24.1165 21.4197 24.1152C21.4192 24.1163 21.4186 24.1173 21.418 24.1183Z" fill="white"/>
<path d="M18.6609 20.425C18.5965 20.5191 18.556 20.626 18.5449 20.7396C18.5337 20.8534 18.54 20.9801 18.5832 21.0872C18.6244 21.1894 18.7107 21.2648 18.7997 21.3255C18.8996 21.3934 19.0095 21.4465 19.1214 21.4915C19.2153 21.5293 19.3209 21.5654 19.4348 21.6003V19.9814C19.1472 20.0428 18.8329 20.1738 18.6609 20.425Z" fill="white"/>
<path d="M21.4263 24.1016C21.424 24.1058 21.4214 24.1101 21.4189 24.1147C21.4219 24.1094 21.4242 24.1054 21.4263 24.1016Z" fill="white"/>
<path d="M21.4365 24.0831C21.4374 24.0816 21.4373 24.0817 21.4365 24.0831Z" fill="white"/>
<path d="M21.0474 14.3517C22.5688 13.0736 23.5854 10.1943 22.9598 10.0683C22.1285 9.90093 20.3234 10.6349 19.4508 10.7643C18.2133 10.9137 16.8655 9.42232 16.1089 10.2536C15.4938 10.9295 16.55 13.3875 18.2023 14.4583C13.2726 16.8812 6.3435 29.0443 18.4316 29.9269C35.1577 31.148 26.7823 16.7127 21.0474 14.3517ZM22.4838 23.9441C22.4324 24.4183 22.1811 24.8471 21.8054 25.1382C21.4088 25.4456 20.9113 25.5886 20.4171 25.6286V26.1526C20.4171 26.2928 20.3558 26.4283 20.2509 26.5211C20.1066 26.6488 19.8947 26.6803 19.7196 26.5996C19.5468 26.5201 19.4332 26.3428 19.4332 26.1526V25.5799C19.3484 25.5638 19.2643 25.5447 19.1811 25.5219C18.7192 25.3949 18.2907 25.1475 17.9777 24.7815C17.8218 24.599 17.6947 24.392 17.6068 24.1685C17.5838 24.1101 17.5633 24.0506 17.5454 23.9905C17.5292 23.936 17.5124 23.8807 17.5066 23.8239C17.4969 23.7287 17.5157 23.6316 17.5601 23.5468C17.6513 23.3723 17.8435 23.267 18.0398 23.2845C18.2329 23.3016 18.4022 23.4356 18.463 23.6197C18.4817 23.6764 18.4944 23.7346 18.5155 23.7907C18.5363 23.8464 18.5615 23.9006 18.5911 23.9521C18.6495 24.0537 18.7228 24.1473 18.8071 24.2286C18.9809 24.3961 19.2024 24.505 19.4332 24.5697V22.6232C18.9818 22.5063 18.5159 22.3554 18.1432 22.0656C17.9621 21.9247 17.8084 21.7496 17.7077 21.5424C17.6015 21.3237 17.5575 21.0801 17.5557 20.8381C17.5539 20.5924 17.6005 20.3489 17.703 20.125C17.799 19.9154 17.9373 19.7272 18.1067 19.5712C18.4691 19.2376 18.9504 19.0516 19.4332 18.9833V18.9405V18.4394C19.4332 18.2993 19.4945 18.1636 19.5994 18.0708C19.7437 17.9432 19.9556 17.9117 20.1307 17.9924C20.3035 18.0719 20.4171 18.2492 20.4171 18.4394V18.9405V18.9803C20.4814 18.9884 20.5456 18.9981 20.6094 19.0097C21.0835 19.0955 21.5472 19.2913 21.8939 19.6331C22.0581 19.7949 22.1926 19.9878 22.2871 20.1982C22.3135 20.2569 22.3366 20.3169 22.3566 20.3782C22.3753 20.4353 22.394 20.494 22.4029 20.5536C22.4171 20.6487 22.4026 20.747 22.3619 20.834C22.2785 21.0123 22.0915 21.1258 21.8947 21.1174C21.7014 21.1089 21.5262 20.983 21.457 20.8023C21.4364 20.7486 21.4261 20.6917 21.4051 20.6381C21.3838 20.5838 21.3563 20.5321 21.3247 20.4832C21.2631 20.3881 21.1833 20.3066 21.0923 20.2394C20.8951 20.0938 20.6559 20.018 20.417 19.9756V21.8383C20.701 21.9063 20.9852 21.9805 21.2573 22.0878C21.6686 22.25 22.0583 22.4986 22.2828 22.8908C22.248 22.8297 22.2141 22.7701 22.284 22.8928C22.3526 23.0133 22.3198 22.9558 22.2854 22.8955C22.464 23.2102 22.5227 23.5866 22.4838 23.9441Z" fill="white"/>
<path d="M21.4116 24.127C21.4088 24.1321 21.4063 24.1366 21.4043 24.14C21.406 24.1371 21.4085 24.1326 21.4116 24.127Z" fill="white"/>
</g>
<defs>
<clipPath id="clip0_1439_11517">
<rect width="20" height="20" fill="white" transform="translate(10 10)"/>
</clipPath>
</defs>
</svg>
